<svg xmlns="http://www.w3.org/2000/svg" viewBox="0 0 87.14 52.66"><path d="M238.49,305.51h8.26v2.18H234.34l8.26-14.59h-8.26v-2.18h12.41Z" transform="translate(-234.34 -289.67)"/><path d="M258.92,295.64v12h-2.26v-1.34a5.55,5.55,0,0,1-3.65,1.34,6,6,0,0,1,0-11.9,5.55,5.55,0,0,1,3.65,1.34v-1.46h2.26Zm-2.26,6.58v-1A3.77,3.77,0,1,0,256.66,302.22Z" transform="translate(-234.34 -289.67)"/><path  d="M269.17,304.28l1,2.14-0.24.1a5.75,5.75,0,0,1-3.41,1.13,6,6,0,1,1,0-12,5.86,5.86,0,0,1,3.41,1.08l0.24,0.12-1,2.06-0.34-.24a3.52,3.52,0,0,0-2.3-.82,3.76,3.76,0,1,0,2.38,6.65Z" transform="translate(-234.34 -289.67)"/><path  d="M282.92,307.64h-2.14v-6.82a3.54,3.54,0,0,0-3.38-2.74,3.63,3.63,0,0,0-3.38,2.69l0,6.86H271.8l-0.1,0v-18H274v7.46a5.39,5.39,0,0,1,3.38-1.25,5.86,5.86,0,0,1,5.57,5.5C283,301.71,283,302.07,282.92,307.64Z" transform="translate(-234.34 -289.67)"/><path  d="M296.17,295.64v12h-2.26v-1.34a5.55,5.55,0,0,1-3.65,1.34,6,6,0,0,1,0-11.9,5.55,5.55,0,0,1,3.65,1.34v-1.46h2.26Zm-2.26,6.58v-1A3.77,3.77,0,1,0,293.91,302.22Z" transform="translate(-234.34 -289.67)"/><path  d="M299.76,297.13a5.81,5.81,0,0,1,3.72-1.37v2.11a3.88,3.88,0,0,0-3.72,3.77v6h-2v-12h2v1.49Z" transform="translate(-234.34 -289.67)"/><path  d="M310.4,307.52l-0.19.46-2.45,5.74h-2.4l3.65-8.52-4-9.36h2.28l2.93,6.62,2.93-6.62h2.28l-4,9.34Z" transform="translate(-234.34 -289.67)"/><path  d="M239.21,336.47h-4.49V319.69l4.49,0A8.38,8.38,0,0,1,239.21,336.47Zm-0.12-2.4a6,6,0,1,0,0-12h-2v12h2Z" transform="translate(-234.34 -289.67)"/><path  d="M260.53,324.44v12h-2.26v-1.34a5.55,5.55,0,0,1-3.65,1.34,6,6,0,0,1,0-11.9,5.55,5.55,0,0,1,3.65,1.34v-1.46h2.26ZM258.27,331v-1A3.77,3.77,0,1,0,258.27,331Z" transform="translate(-234.34 -289.67)"/><path  d="M264.51,336.47h-2.45v-18h2.45v18Z" transform="translate(-234.34 -289.67)"/><path  d="M278,324.49v11.83a6,6,0,0,1-2.26,4.73,5.71,5.71,0,0,1-8.42-1.39l1.3-2.23a3.77,3.77,0,0,0,3.55,2.71,3.73,3.73,0,0,0,3.58-2.78V335.1c-0.07,0,0,0-.1,0a5.38,5.38,0,0,1-3.58,1.32,5.86,5.86,0,0,1-3.46-1.15,6.82,6.82,0,0,1-1.56-1.78,6.38,6.38,0,0,1-.82-3.07,5.9,5.9,0,0,1,5.83-6,5.67,5.67,0,0,1,3.67,1.34v-1.34H278Zm-3.58,8.88a4.27,4.27,0,0,0,1.2-1.85c0-.17,0-0.38.12-1.58a3.71,3.71,0,0,0-7.39.5,4,4,0,0,0,.19,1.2,3.84,3.84,0,0,0,1.22,1.8A3.69,3.69,0,0,0,274.45,333.37Zm-5.76,4,0,0.07v-0.07h0Z" transform="translate(-234.34 -289.67)"/><path  d="M282,336.47h-2.45v-18H282v18Z" transform="translate(-234.34 -289.67)"/><path  d="M295.47,330.49a4.67,4.67,0,0,1-.1,1.06H286a3.69,3.69,0,0,0,3.55,2.78,3.3,3.3,0,0,0,2-.62h3a5.75,5.75,0,0,1-5,2.81A6,6,0,1,1,295.47,330.49ZM286,329.41h7.15a3.78,3.78,0,0,0-3.6-2.78A3.72,3.72,0,0,0,286,329.41Z" transform="translate(-234.34 -289.67)"/><path  d="M298.08,319.69a1.22,1.22,0,0,1,1.2,1.2,1.2,1.2,0,0,1-1.2,1.2,1.19,1.19,0,0,1-1.2-1.2A1.2,1.2,0,0,1,298.08,319.69Zm1.06,16.75h-2.21v-12h2.21v12Z" transform="translate(-234.34 -289.67)"/><path  d="M308.67,332.79a3.67,3.67,0,0,1-3.74,3.65h-0.48a4.5,4.5,0,0,1-3.65-1.78l-0.12-.14,1-1.73,0.26,0.41a3.41,3.41,0,0,0,2.93,1.25h0a1.66,1.66,0,0,0,1.73-1.66c0-.84-0.5-1.32-1.78-1.51-1.87-.07-4.1-1.13-4.1-3.36a3.47,3.47,0,0,1,3.38-3.5h0.24a4.28,4.28,0,0,1,3.19,1.42l0.14,0.17-1.08,1.92-0.29-.34a2.64,2.64,0,0,0-2-1,1.38,1.38,0,0,0-1.54,1.37c0,0.48.22,1.18,2.14,1.25C307.23,329.43,308.67,330.85,308.67,332.79Z" transform="translate(-234.34 -289.67)"/><path  d="M321.44,336.44H319.3v-6.82a3.54,3.54,0,0,0-3.38-2.74,3.63,3.63,0,0,0-3.38,2.69l0,6.86h-2.18l-0.1,0v-18h2.3v7.46a5.39,5.39,0,0,1,3.38-1.25,5.86,5.86,0,0,1,5.57,5.5C321.49,330.51,321.49,330.87,321.44,336.44Z" transform="translate(-234.34 -289.67)"/></svg>
